<svg width="165" height="47" viewBox="0 0 165 47" fill="none" xmlns="http://www.w3.org/2000/svg">
<path d="M37.8394 0H9.1646C4.10313 0 0 4.10313 0 9.1646V37.8394C0 42.9009 4.10313 47.004 9.1646 47.004H37.8394C42.9009 47.004 47.004 42.9009 47.004 37.8394V9.1646C47.004 4.10313 42.9009 0 37.8394 0Z" fill="#FF472A"/>
<path d="M39.4413 17.8615L38.1299 16.5627C37.6669 16.1031 37.3822 15.4937 37.3285 14.8432L37.1764 13.0037C37.1444 12.6115 36.918 12.2983 36.6128 12.1279C36.3052 11.9564 35.9177 11.929 35.5655 12.1108L34.3205 12.7521L33.9238 12.9556C33.3441 13.254 32.6764 13.3364 32.0419 13.1866L30.9832 12.9374L30.2447 12.7624C29.4764 12.5818 28.771 13.2392 28.8979 14.0178L29.1951 15.839C29.3003 16.4827 29.1711 17.1435 28.8327 17.7014L27.8746 19.2792C27.4653 19.9537 27.8723 20.8283 28.6521 20.9472L30.4768 21.2273C31.1216 21.3268 31.7104 21.6526 32.1357 22.1465L33.3395 23.5459C33.854 24.1439 34.8121 24.0273 35.1665 23.3218L35.3197 23.0189L35.9977 21.6732C36.2915 21.0901 36.7831 20.6317 37.3845 20.3802L39.0869 19.6667C39.8151 19.3615 39.9992 18.4148 39.4378 17.8592L39.4413 17.8615Z" fill="white"/>
<path d="M29.8652 23.78C29.4079 23.676 28.9426 23.9172 28.8099 24.3791C28.7219 24.6866 28.6167 24.9896 28.4967 25.2868C28.3366 25.6538 28.1526 26.0105 27.9433 26.3512C27.8279 26.5376 27.7055 26.7194 27.5763 26.8966C27.5535 26.9275 27.5295 26.9595 27.5066 26.9903C27.5043 26.9926 27.5032 26.9949 27.5009 26.9972C27.438 27.0761 27.3728 27.155 27.3065 27.2316C27.0321 27.5506 26.7337 27.8478 26.4148 28.1222C26.3439 28.1828 26.2718 28.2422 26.1987 28.3006C26.1792 28.3166 26.1598 28.3314 26.1404 28.3474C26.0409 28.4263 26.2273 28.2788 26.2261 28.2823C26.2032 28.3234 26.1152 28.3657 26.0775 28.3943C25.9129 28.5155 25.7425 28.6298 25.5699 28.7384C25.204 28.9682 24.8199 29.1672 24.4243 29.3409C23.7406 29.6188 23.026 29.812 22.2955 29.9195C21.8153 29.9766 21.3317 29.9995 20.8481 29.9835C20.8927 29.9046 20.9373 29.8257 20.9796 29.7434C21.2677 29.182 21.51 28.5898 21.6918 27.9839C22.0245 26.8749 22.1754 25.679 22.0554 24.5231C21.9331 23.3501 21.5901 22.1794 20.8892 21.2156C20.5097 20.6943 20.0844 20.2644 19.5607 19.8882C19.1046 19.5601 18.5844 19.3143 18.0516 19.1371C16.9975 18.785 15.7673 18.7427 14.7178 19.1337C14.1576 19.3417 13.6694 19.6207 13.2063 19.998C12.7868 20.3398 12.4323 20.7709 12.1431 21.2259C11.5634 22.1371 11.2399 23.2552 11.2662 24.3368C11.2936 25.4892 11.6961 26.6325 12.3363 27.5849C13.5974 29.461 15.6496 30.7666 17.8401 31.296C17.6846 31.4743 17.5245 31.6481 17.3553 31.8139C17.2261 31.9408 17.0935 32.0631 16.9575 32.182C16.8866 32.2438 16.8157 32.3043 16.7425 32.3638C16.714 32.3878 16.6854 32.4107 16.6556 32.4335C16.5893 32.4576 16.5104 32.5444 16.4544 32.5856C16.379 32.6405 16.3024 32.6942 16.2246 32.7468C16.076 32.8474 15.9251 32.9434 15.7707 33.0349C15.446 33.2293 15.1076 33.4008 14.7612 33.5517C14.1187 33.8123 13.4487 33.9964 12.7628 34.0993C12.1088 34.1759 11.4503 34.1759 10.7963 34.0993C10.124 33.9987 9.46894 33.8169 8.83899 33.5631C8.6755 33.4911 8.51315 33.4156 8.35309 33.3356C7.95294 33.1332 7.4053 33.2167 7.18007 33.6431C6.97428 34.033 7.06003 34.6001 7.48762 34.8162C8.42626 35.2906 9.42321 35.6302 10.4659 35.7719C11.4971 35.9126 12.5135 35.892 13.539 35.6999C15.2643 35.3775 16.8706 34.5326 18.1831 33.379C18.7753 32.8588 19.3126 32.2563 19.7665 31.6058C21.3763 31.8276 23.0558 31.6675 24.5786 31.1085C25.4338 30.7952 26.2513 30.3825 26.9841 29.8394C27.7833 29.2472 28.4658 28.5647 29.0535 27.7609C29.6948 26.8852 30.1602 25.8756 30.4597 24.8341C30.5832 24.4031 30.3088 23.8817 29.8606 23.7789L29.8652 23.78ZM16.5928 32.485C16.5127 32.549 16.6156 32.4621 16.6522 32.437C16.6488 32.4393 16.6465 32.4415 16.6431 32.445C16.6259 32.4587 16.6088 32.4713 16.5928 32.485ZM15.358 28.2891C15.3226 28.264 15.2883 28.2388 15.2528 28.2125C15.2471 28.2079 15.2425 28.2045 15.2368 28.2011C15.0619 28.0605 14.8904 27.9164 14.7258 27.7621C14.5566 27.6031 14.3942 27.4374 14.2399 27.2636C14.1724 27.1881 14.1073 27.1104 14.0432 27.0315C14.0364 27.0224 14.0261 27.0098 14.0158 26.9961C14.0238 27.0075 14.0329 27.0201 14.0432 27.0349C14.0101 26.9881 13.9735 26.9423 13.9403 26.8955C13.6945 26.5548 13.4853 26.19 13.3138 25.807C13.172 25.4469 13.068 25.0742 13.0074 24.6912C12.9754 24.3745 12.9765 24.059 13.0097 23.7423C13.068 23.3821 13.1663 23.03 13.3012 22.6904C13.4018 22.4709 13.515 22.2583 13.6465 22.0559C13.6831 21.9988 13.7208 21.9439 13.7608 21.8879C13.7723 21.8718 13.7849 21.8558 13.7963 21.8387C13.8786 21.7392 13.9621 21.6409 14.0512 21.5483C14.1438 21.4523 14.2422 21.3597 14.3439 21.2728C14.4045 21.2213 14.6195 21.0818 14.3736 21.243C14.4297 21.2065 14.4823 21.1641 14.5371 21.1264C14.7178 21.0052 14.9076 20.9046 15.1042 20.8143C15.3603 20.7137 15.6244 20.6428 15.8954 20.5971C16.2018 20.5662 16.5082 20.5674 16.8134 20.5994C17.1758 20.6577 17.528 20.7549 17.8687 20.8898C18.095 20.9927 18.3157 21.1116 18.5249 21.2476C18.5889 21.2899 18.6518 21.3334 18.7136 21.3779C18.741 21.3985 18.7684 21.4202 18.797 21.4397C18.7833 21.4305 18.7719 21.4225 18.7604 21.4145C18.8691 21.5037 18.9742 21.5986 19.0737 21.6981C19.1823 21.8055 19.2841 21.921 19.3801 22.0388C19.3812 22.0399 19.3835 22.0433 19.3858 22.0456C19.395 22.0582 19.4053 22.0708 19.4098 22.0776C19.4578 22.1439 19.5036 22.2103 19.5482 22.2789C19.7059 22.5189 19.8408 22.7728 19.9575 23.0334C20.1335 23.4782 20.2547 23.9412 20.3279 24.4145C20.3999 25.0273 20.3942 25.6447 20.3222 26.2575C20.2147 26.9766 20.0181 27.6797 19.7448 28.3531C19.5242 28.8539 19.2566 29.3215 18.9594 29.7743C18.2963 29.6611 17.6469 29.477 17.0226 29.2255C16.5459 29.0174 16.0863 28.7727 15.6507 28.4881C15.5512 28.4229 15.4541 28.3566 15.358 28.2868V28.2891Z" fill="white"/>
<path d="M14.0171 26.9973C13.9194 26.8581 13.9723 26.9375 14.0171 26.9973V26.9973Z" fill="white"/>
<path d="M18.7591 21.4168C18.7591 21.4168 18.7545 21.4122 18.7523 21.4111C18.7065 21.3733 18.591 21.3002 18.7591 21.4168Z" fill="white"/>
<path d="M63.8127 25.9229H70.286C70.3832 25.9229 70.4564 26.0018 70.4449 26.099C70.3706 26.7038 70.1877 27.328 69.8962 27.9717C69.576 28.6794 69.1359 29.3334 68.5734 29.9336C68.0109 30.535 67.3478 31.0186 66.5818 31.3867C65.8158 31.7549 64.9686 31.9389 64.0379 31.9389C62.546 31.9389 61.2769 31.6245 60.2297 30.9946C59.1835 30.3646 58.3935 29.4934 57.8608 28.3787C57.328 27.2652 57.0616 25.971 57.0616 24.4984C57.0616 23.0259 57.3566 21.7374 57.9477 20.633C58.5387 19.5285 59.347 18.6665 60.3749 18.0457C61.4015 17.426 62.5734 17.1151 63.8916 17.1151C64.589 17.1151 65.2384 17.2077 65.8386 17.3917C66.4389 17.5758 66.9911 17.8422 67.4953 18.1909C67.9994 18.5396 68.435 18.966 68.8032 19.4702C69.0684 19.8338 69.2936 20.2328 69.4789 20.6673C69.6012 20.9531 69.9247 21.096 70.2174 20.9908L72.4171 20.1996C72.7452 20.0819 72.895 19.7252 72.7544 19.4062C72.0775 17.8651 71.0372 16.6406 69.6321 15.7363C68.052 14.7187 66.1679 14.21 63.9785 14.21C62.5642 14.21 61.2312 14.4569 59.9816 14.9508C58.732 15.4447 57.6321 16.1524 56.682 17.0728C55.732 17.9931 54.9911 19.0838 54.4583 20.3426C53.9256 21.6025 53.6592 22.9881 53.6592 24.4996C53.6592 26.011 53.9301 27.3966 54.4732 28.6565C55.0151 29.9165 55.7571 31.006 56.6969 31.9264C57.6367 32.8467 58.7217 33.559 59.9518 34.0632C61.182 34.5673 62.4854 34.8189 63.8619 34.8189C64.8886 34.8189 65.8043 34.6588 66.6092 34.3387C67.4129 34.0186 68.1161 33.6116 68.7163 33.1177C69.3165 32.6238 69.8058 32.0956 70.1843 31.5331C70.4003 31.2118 70.5856 30.9008 70.741 30.599C70.8176 30.4504 71.0417 30.5052 71.0417 30.6722V34.0266C71.0417 34.3513 71.3047 34.6142 71.6294 34.6142H73.4781C73.8028 34.6142 74.0657 34.3513 74.0657 34.0266V23.8067C74.0657 23.482 73.8028 23.2191 73.4781 23.2191H63.8104C63.4857 23.2191 63.2228 23.482 63.2228 23.8067V25.3353C63.2228 25.66 63.4857 25.9229 63.8104 25.9229H63.8127Z" fill="url(#paint0_linear_955_576)"/>
<path d="M87.9729 19.4111C86.7415 18.7331 85.3616 18.3936 83.8307 18.3936C82.2999 18.3936 80.9428 18.7331 79.7035 19.4111C78.463 20.0902 77.4798 21.0391 76.7526 22.2602C76.0255 23.4812 75.6631 24.9252 75.6631 26.5909C75.6631 28.2567 76.0164 29.6824 76.7241 30.9217C77.4318 32.1622 78.391 33.1214 79.6017 33.7994C80.8125 34.4785 82.1741 34.8169 83.6855 34.8169C85.197 34.8169 86.6112 34.4785 87.8711 33.7994C89.131 33.1214 90.1337 32.1622 90.8791 30.9217C91.6245 29.6812 91.9984 28.2384 91.9984 26.5909C91.9984 24.9435 91.6348 23.4812 90.9088 22.2602C90.1817 21.0391 89.203 20.0902 87.9729 19.4111ZM87.886 29.5555C87.4104 30.3501 86.801 30.9457 86.0544 31.3436C85.3079 31.7414 84.5179 31.9392 83.6855 31.9392C82.8532 31.9392 82.0815 31.7403 81.375 31.3436C80.6673 30.9469 80.1002 30.3512 79.6749 29.5555C79.2484 28.7609 79.0358 27.7731 79.0358 26.5909C79.0358 25.4088 79.2587 24.3958 79.7046 23.6115C80.1505 22.8272 80.7313 22.2407 81.4481 21.8531C82.165 21.4656 82.9401 21.2724 83.7736 21.2724C84.607 21.2724 85.3868 21.4667 86.1139 21.8531C86.841 22.2407 87.4367 22.8272 87.902 23.6115C88.3673 24.3958 88.5994 25.3893 88.5994 26.5909C88.5994 27.7925 88.3616 28.7609 87.8871 29.5555H87.886Z" fill="url(#paint1_linear_955_576)"/>
<path d="M98.3426 14.8008L91.5252 33.8286C91.388 34.2116 91.6716 34.614 92.0774 34.614H94.2863C94.5355 34.614 94.7584 34.4562 94.8407 34.2207L96.1109 30.5931C96.1338 30.529 96.1933 30.4867 96.2607 30.4867H104.51C104.577 30.4867 104.638 30.529 104.659 30.5931L105.929 34.2207C106.012 34.4562 106.234 34.614 106.484 34.614H108.721C109.127 34.614 109.411 34.2116 109.274 33.8286L102.456 14.8008C102.373 14.5676 102.151 14.4121 101.904 14.4121H98.8937C98.6456 14.4121 98.425 14.5676 98.3415 14.8008H98.3426ZM97.1685 27.5714L100.235 18.8149C100.285 18.6731 100.485 18.6731 100.535 18.8149L103.602 27.5714C103.638 27.6754 103.561 27.7829 103.452 27.7829H97.3194C97.2096 27.7829 97.133 27.6743 97.1696 27.5714H97.1685Z" fill="url(#paint2_linear_955_576)"/>
<path d="M114.103 21.3025V19.184C114.103 18.8593 113.841 18.5963 113.516 18.5963H111.377C111.052 18.5963 110.789 18.8593 110.789 19.184V34.0262C110.789 34.3509 111.052 34.6138 111.377 34.6138H113.516C113.841 34.6138 114.103 34.3509 114.103 34.0262V26.5331C114.103 25.4675 114.273 24.5815 114.612 23.8738C114.951 23.1661 115.422 22.6333 116.022 22.2754C116.622 21.9176 117.32 21.7381 118.115 21.7381C118.178 21.7381 118.287 21.7347 118.415 21.7381C118.744 21.7472 119.016 21.4809 119.016 21.1516V19.0194C119.016 18.6638 118.703 18.3928 118.35 18.4374C117.492 18.5449 116.711 18.8662 116.008 19.3989C115.327 19.9157 114.794 20.5731 114.408 21.3722C114.333 21.5254 114.105 21.474 114.105 21.3036L114.103 21.3025Z" fill="url(#paint3_linear_955_576)"/>
<path d="M128.713 31.736C128.481 31.8332 128.219 31.8812 127.929 31.8812C127.6 31.8812 127.294 31.7646 127.013 31.5325C126.732 31.3004 126.591 30.9128 126.591 30.3697V21.4601C126.591 21.3721 126.662 21.3012 126.75 21.3012H129.899C130.223 21.3012 130.486 21.0382 130.486 20.7135V19.185C130.486 18.8603 130.223 18.5973 129.899 18.5973H125.765C125.606 18.5973 125.546 18.3915 125.679 18.3046C125.727 18.2738 125.774 18.2406 125.821 18.2052C126.063 18.0211 126.252 17.7981 126.388 17.5363C126.523 17.2745 126.591 17.0081 126.591 16.7372V15.2029C126.591 14.8782 126.328 14.6152 126.003 14.6152H123.835C123.51 14.6152 123.247 14.8782 123.247 15.2029V17.2905C123.247 17.6975 123.135 18.0177 122.913 18.2497C122.69 18.4818 122.376 18.5985 121.969 18.5985H121.364C121.039 18.5985 120.776 18.8614 120.776 19.1861V20.7147C120.776 21.0394 121.039 21.3023 121.364 21.3023H123.088C123.176 21.3023 123.247 21.3732 123.247 21.4612V30.1674C123.247 31.6022 123.654 32.7352 124.468 33.5687C125.282 34.4021 126.3 34.8183 127.521 34.8183C128.237 34.8183 128.877 34.7017 129.439 34.4696C129.85 34.3004 130.254 34.0523 130.654 33.7276C130.907 33.5229 130.94 33.1479 130.733 32.8976L129.75 31.7143C129.564 31.4902 129.238 31.4319 128.992 31.5896C128.901 31.6479 128.808 31.6971 128.714 31.736H128.713Z" fill="url(#paint4_linear_955_576)"/>
<path d="M137.486 17.4646C137.486 16.845 137.573 16.351 137.748 15.9818C137.923 15.6136 138.213 15.3472 138.62 15.1826C138.908 15.066 139.258 14.9905 139.672 14.9562C139.979 14.9311 140.218 14.6796 140.218 14.3709V12.7737C140.218 12.4399 139.939 12.1723 139.606 12.1861C138.814 12.2192 138.112 12.3164 137.501 12.4787C136.735 12.6822 136.106 13.0024 135.611 13.438C135.117 13.8735 134.749 14.4212 134.507 15.0797C134.264 15.7382 134.143 16.5328 134.143 17.4635V18.01C134.143 18.3347 133.88 18.5976 133.555 18.5976H132.84C132.515 18.5976 132.252 18.8606 132.252 19.1853V20.7138C132.252 21.0385 132.515 21.3015 132.84 21.3015H133.983C134.071 21.3015 134.142 21.3724 134.142 21.4604V34.0274C134.142 34.3521 134.405 34.6151 134.729 34.6151H136.898C137.223 34.6151 137.486 34.3521 137.486 34.0274V21.4604C137.486 21.3724 137.557 21.3015 137.645 21.3015H139.863C140.188 21.3015 140.45 21.0385 140.45 20.7138V19.1853C140.45 18.8606 140.188 18.5976 139.863 18.5976H137.645C137.557 18.5976 137.486 18.5267 137.486 18.4387V17.4646Z" fill="url(#paint5_linear_955_576)"/>
<path d="M153.55 27.0271C153.55 27.9772 153.385 28.8198 153.056 29.5561C152.726 30.2923 152.257 30.8743 151.646 31.2996C151.035 31.726 150.323 31.9387 149.509 31.9387C148.308 31.9387 147.338 31.5362 146.603 30.7325C145.867 29.9288 145.499 28.7901 145.499 27.3175V19.3465C145.499 18.9326 145.164 18.5977 144.75 18.5977H142.963C142.549 18.5977 142.214 18.9326 142.214 19.3465V28.0161C142.214 29.5081 142.476 30.7588 142.999 31.766C143.523 32.7744 144.259 33.5347 145.208 34.0481C146.157 34.5614 147.252 34.8186 148.493 34.8186C149.461 34.8186 150.363 34.5717 151.196 34.0778C152.029 33.5839 152.712 32.8236 153.244 31.7958C153.322 31.6449 153.55 31.7009 153.55 31.8701V32.755C153.55 33.2981 153.724 33.7428 154.073 34.0926C154.422 34.4413 154.868 34.6163 155.411 34.6163H156.115C156.529 34.6163 156.864 34.2813 156.864 33.8674V19.3488C156.864 18.9349 156.529 18.5999 156.115 18.5999H154.298C153.885 18.5999 153.55 18.9349 153.55 19.3488V27.0294V27.0271Z" fill="url(#paint6_linear_955_576)"/>
<path d="M164.567 32.415C164.494 32.1589 164.217 31.9714 163.951 31.9919C163.903 31.9954 163.854 31.9977 163.804 31.9977C163.455 31.9977 163.154 31.881 162.903 31.649C162.651 31.4169 162.525 31.0876 162.525 30.6612V13.6902C162.525 13.3655 162.262 13.1025 161.938 13.1025H159.799C159.474 13.1025 159.211 13.3655 159.211 13.6902V30.9504C159.211 31.8616 159.404 32.6025 159.793 33.1741C160.18 33.7458 160.674 34.1619 161.276 34.4237C161.876 34.6855 162.486 34.8159 163.107 34.8159C163.666 34.8159 164.171 34.7301 164.619 34.5586C164.905 34.4489 165.061 34.1413 164.978 33.8464L164.568 32.4138L164.567 32.415Z" fill="url(#paint7_linear_955_576)"/>
<defs>
<linearGradient id="paint0_linear_955_576" x1="7.66813" y1="24.5133" x2="162.413" y2="24.5133" gradientUnits="userSpaceOnUse">
<stop stop-color="white"/>
<stop offset="1" stop-color="white"/>
</linearGradient>
<linearGradient id="paint1_linear_955_576" x1="7.6683" y1="26.6058" x2="162.414" y2="26.6058" gradientUnits="userSpaceOnUse">
<stop stop-color="white"/>
<stop offset="1" stop-color="white"/>
</linearGradient>
<linearGradient id="paint2_linear_955_576" x1="7.66842" y1="24.5131" x2="162.414" y2="24.5131" gradientUnits="userSpaceOnUse">
<stop stop-color="white"/>
<stop offset="1" stop-color="white"/>
</linearGradient>
<linearGradient id="paint3_linear_955_576" x1="7.66787" y1="26.5216" x2="162.413" y2="26.5216" gradientUnits="userSpaceOnUse">
<stop stop-color="white"/>
<stop offset="1" stop-color="white"/>
</linearGradient>
<linearGradient id="paint4_linear_955_576" x1="7.66861" y1="24.7162" x2="162.414" y2="24.7162" gradientUnits="userSpaceOnUse">
<stop stop-color="white"/>
<stop offset="1" stop-color="white"/>
</linearGradient>
<linearGradient id="paint5_linear_955_576" x1="7.66792" y1="23.3994" x2="162.413" y2="23.3994" gradientUnits="userSpaceOnUse">
<stop stop-color="white"/>
<stop offset="1" stop-color="white"/>
</linearGradient>
<linearGradient id="paint6_linear_955_576" x1="7.66827" y1="26.7081" x2="162.413" y2="26.7081" gradientUnits="userSpaceOnUse">
<stop stop-color="white"/>
<stop offset="1" stop-color="white"/>
</linearGradient>
<linearGradient id="paint7_linear_955_576" x1="7.66791" y1="23.9603" x2="162.413" y2="23.9603" gradientUnits="userSpaceOnUse">
<stop stop-color="white"/>
<stop offset="1" stop-color="white"/>
</linearGradient>
</defs>
</svg>
